<?xml version="1.0" encoding="UTF-8"?>
<svg xmlns="http://www.w3.org/2000/svg" version="1.1" viewBox="0 0 28.6 20">
  <!-- Generator: Adobe Illustrator 29.0.0, SVG Export Plug-In . SVG Version: 2.1.0 Build 186)  -->
  <defs>
    <style>
      .st0 {
        fill: #fff;
      }

      .st1 {
        fill: red;
      }
    </style>
  </defs>
  <g id="_图层_1" data-name="图层_1" focusable="false">
    <g>
      <path class="st1" d="M28,3.1c-.3-1.2-1.3-2.2-2.5-2.5C23.2,0,14.3,0,14.3,0,14.3,0,5.4,0,3.1.6,1.9.9.9,1.9.6,3.1,0,5.4,0,10,0,10c0,0,0,4.6.6,6.9.3,1.2,1.3,2.2,2.5,2.5,2.2.6,11.2.6,11.2.6,0,0,8.9,0,11.2-.6,1.2-.3,2.2-1.3,2.5-2.5.6-2.2.6-6.9.6-6.9,0,0,0-4.6-.6-6.9Z"/>
      <path class="st0" d="M11.4,14.3l7.4-4.3-7.4-4.3v8.6Z"/>
    </g>
  </g>
</svg>